<svg width="243" height="65" viewBox="0 0 243 65" fill="none" xmlns="http://www.w3.org/2000/svg">
<path d="M10.016 31L0.096 8.6H2.656L11.936 29.688H10.528L19.872 8.6H22.272L12.352 31H10.016ZM25.523 31V8.6H27.891V31H25.523ZM44.9073 31.192C43.2219 31.192 41.6646 30.9147 40.2353 30.36C38.8059 29.784 37.5686 28.984 36.5233 27.96C35.4779 26.936 34.6566 25.7307 34.0593 24.344C33.4833 22.9573 33.1953 21.4427 33.1953 19.8C33.1953 18.1573 33.4833 16.6427 34.0593 15.256C34.6566 13.8693 35.4779 12.664 36.5233 11.64C37.5899 10.616 38.8379 9.82667 40.2673 9.272C41.6966 8.696 43.2539 8.408 44.9393 8.408C46.5606 8.408 48.0859 8.68533 49.5153 9.24C50.9446 9.77333 52.1499 10.584 53.1313 11.672L51.6273 13.176C50.7099 12.2373 49.6966 11.5653 48.5873 11.16C47.4779 10.7333 46.2833 10.52 45.0033 10.52C43.6593 10.52 42.4113 10.7547 41.2593 11.224C40.1073 11.672 39.1046 12.3227 38.2513 13.176C37.3979 14.008 36.7259 14.9893 36.2352 16.12C35.7659 17.2293 35.5312 18.456 35.5312 19.8C35.5312 21.144 35.7659 22.3813 36.2352 23.512C36.7259 24.6213 37.3979 25.6027 38.2513 26.456C39.1046 27.288 40.1073 27.9387 41.2593 28.408C42.4113 28.856 43.6593 29.08 45.0033 29.08C46.2833 29.08 47.4779 28.8667 48.5873 28.44C49.6966 28.0133 50.7099 27.3307 51.6273 26.392L53.1313 27.896C52.1499 28.984 50.9446 29.8053 49.5153 30.36C48.0859 30.9147 46.5499 31.192 44.9073 31.192ZM62.25 31V10.648H54.378V8.6H72.49V10.648H64.618V31H62.25ZM85.7525 31.192C84.0672 31.192 82.4992 30.9147 81.0485 30.36C79.6192 29.784 78.3712 28.984 77.3045 27.96C76.2592 26.9147 75.4378 25.7093 74.8405 24.344C74.2645 22.9573 73.9765 21.4427 73.9765 19.8C73.9765 18.1573 74.2645 16.6533 74.8405 15.288C75.4378 13.9013 76.2592 12.696 77.3045 11.672C78.3712 10.6267 79.6192 9.82667 81.0485 9.272C82.4778 8.696 84.0458 8.408 85.7525 8.408C87.4378 8.408 88.9952 8.696 90.4245 9.272C91.8538 9.82667 93.0912 10.616 94.1365 11.64C95.2032 12.664 96.0245 13.8693 96.6005 15.256C97.1978 16.6427 97.4965 18.1573 97.4965 19.8C97.4965 21.4427 97.1978 22.9573 96.6005 24.344C96.0245 25.7307 95.2032 26.936 94.1365 27.96C93.0912 28.984 91.8538 29.784 90.4245 30.36C88.9952 30.9147 87.4378 31.192 85.7525 31.192ZM85.7525 29.08C87.0965 29.08 88.3338 28.856 89.4645 28.408C90.6165 27.9387 91.6085 27.288 92.4405 26.456C93.2938 25.6027 93.9552 24.6213 94.4245 23.512C94.8938 22.3813 95.1285 21.144 95.1285 19.8C95.1285 18.456 94.8938 17.2293 94.4245 16.12C93.9552 14.9893 93.2938 14.008 92.4405 13.176C91.6085 12.3227 90.6165 11.672 89.4645 11.224C88.3338 10.7547 87.0965 10.52 85.7525 10.52C84.4085 10.52 83.1605 10.7547 82.0085 11.224C80.8565 11.672 79.8538 12.3227 79.0005 13.176C78.1685 14.008 77.5072 14.9893 77.0165 16.12C76.5472 17.2293 76.3125 18.456 76.3125 19.8C76.3125 21.1227 76.5472 22.3493 77.0165 23.48C77.5072 24.6107 78.1685 25.6027 79.0005 26.456C79.8538 27.288 80.8565 27.9387 82.0085 28.408C83.1605 28.856 84.4085 29.08 85.7525 29.08ZM102.804 31V8.6H111.188C113.087 8.6 114.719 8.90933 116.084 9.528C117.45 10.1253 118.495 11 119.22 12.152C119.967 13.2827 120.34 14.6587 120.34 16.28C120.34 17.8587 119.967 19.224 119.22 20.376C118.495 21.5067 117.45 22.3813 116.084 23C114.719 23.5973 113.087 23.896 111.188 23.896H104.116L105.172 22.808V31H102.804ZM118.1 31L112.34 22.872H114.9L120.692 31H118.1ZM105.172 23L104.116 21.88H111.124C113.364 21.88 115.06 21.3893 116.212 20.408C117.386 19.4267 117.972 18.0507 117.972 16.28C117.972 14.488 117.386 13.1013 116.212 12.12C115.06 11.1387 113.364 10.648 111.124 10.648H104.116L105.172 9.528V23ZM150.688 8.6H153.024V31H150.688V8.6ZM136.672 31H134.304V8.6H136.672V31ZM150.912 20.664H136.416V18.584H150.912V20.664ZM169.36 31.192C166.501 31.192 164.25 30.3707 162.608 28.728C160.965 27.0853 160.144 24.6533 160.144 21.432V8.6H162.512V21.336C162.512 23.9813 163.109 25.9333 164.304 27.192C165.498 28.4507 167.184 29.08 169.36 29.08C171.557 29.08 173.253 28.4507 174.448 27.192C175.642 25.9333 176.24 23.9813 176.24 21.336V8.6H178.544V21.432C178.544 24.6533 177.722 27.0853 176.08 28.728C174.458 30.3707 172.218 31.192 169.36 31.192ZM195.503 31.192C193.797 31.192 192.218 30.9147 190.767 30.36C189.338 29.784 188.09 28.984 187.023 27.96C185.978 26.936 185.157 25.7307 184.559 24.344C183.983 22.9573 183.695 21.4427 183.695 19.8C183.695 18.1573 183.983 16.6427 184.559 15.256C185.157 13.8693 185.989 12.664 187.055 11.64C188.122 10.616 189.37 9.82667 190.799 9.272C192.25 8.696 193.829 8.408 195.535 8.408C197.242 8.408 198.799 8.67467 200.207 9.208C201.637 9.74133 202.853 10.552 203.855 11.64L202.383 13.144C201.445 12.2053 200.41 11.5333 199.279 11.128C198.149 10.7227 196.933 10.52 195.631 10.52C194.245 10.52 192.965 10.7547 191.791 11.224C190.639 11.672 189.626 12.3227 188.751 13.176C187.898 14.008 187.226 14.9893 186.735 16.12C186.266 17.2293 186.031 18.456 186.031 19.8C186.031 21.1227 186.266 22.3493 186.735 23.48C187.226 24.6107 187.898 25.6027 188.751 26.456C189.626 27.288 190.639 27.9387 191.791 28.408C192.965 28.856 194.234 29.08 195.599 29.08C196.879 29.08 198.085 28.888 199.215 28.504C200.367 28.12 201.423 27.4693 202.383 26.552L203.727 28.344C202.661 29.2827 201.413 29.9973 199.983 30.488C198.554 30.9573 197.061 31.192 195.503 31.192ZM201.455 28.056V19.8H203.727V28.344L201.455 28.056ZM220.221 31.192C218.536 31.192 216.968 30.9147 215.517 30.36C214.088 29.784 212.84 28.984 211.773 27.96C210.728 26.9147 209.907 25.7093 209.309 24.344C208.733 22.9573 208.445 21.4427 208.445 19.8C208.445 18.1573 208.733 16.6533 209.309 15.288C209.907 13.9013 210.728 12.696 211.773 11.672C212.84 10.6267 214.088 9.82667 215.517 9.272C216.947 8.696 218.515 8.408 220.221 8.408C221.907 8.408 223.464 8.696 224.893 9.272C226.323 9.82667 227.56 10.616 228.605 11.64C229.672 12.664 230.493 13.8693 231.069 15.256C231.667 16.6427 231.965 18.1573 231.965 19.8C231.965 21.4427 231.667 22.9573 231.069 24.344C230.493 25.7307 229.672 26.936 228.605 27.96C227.56 28.984 226.323 29.784 224.893 30.36C223.464 30.9147 221.907 31.192 220.221 31.192ZM220.221 29.08C221.565 29.08 222.803 28.856 223.933 28.408C225.085 27.9387 226.077 27.288 226.909 26.456C227.763 25.6027 228.424 24.6213 228.893 23.512C229.363 22.3813 229.597 21.144 229.597 19.8C229.597 18.456 229.363 17.2293 228.893 16.12C228.424 14.9893 227.763 14.008 226.909 13.176C226.077 12.3227 225.085 11.672 223.933 11.224C222.803 10.7547 221.565 10.52 220.221 10.52C218.877 10.52 217.629 10.7547 216.477 11.224C215.325 11.672 214.323 12.3227 213.469 13.176C212.637 14.008 211.976 14.9893 211.485 16.12C211.016 17.2293 210.781 18.456 210.781 19.8C210.781 21.1227 211.016 22.3493 211.485 23.48C211.976 24.6107 212.637 25.6027 213.469 26.456C214.323 27.288 215.325 27.9387 216.477 28.408C217.629 28.856 218.877 29.08 220.221 29.08Z" fill="#B98B33"/>
<path d="M76.6252 45.5407H76.2092V42.5967H88.5932V45.5407H88.1932V42.9647H82.6092V50.5647H85.6812V50.9327H79.1212V50.5647H82.2092V42.9647H76.6252V45.5407ZM94.7705 50.9327H89.3305V50.5647H91.9225L97.1865 42.9647H94.6105V42.5967H100.642V42.9647H98.0825L103.346 50.5647H105.938V50.9327H100.498V50.5647H102.882L100.93 47.7327H94.3385L92.4025 50.5647H94.7705V50.9327ZM94.5785 47.3807H100.69L97.6505 42.9647H97.6185L94.5785 47.3807ZM107.08 45.5407H106.664V42.5967H119.048V45.5407H118.648V42.9647H113.064V50.5647H116.136V50.9327H109.576V50.5647H112.664V42.9647H107.08V45.5407ZM121.721 45.5407H121.305V42.5967H133.689V45.5407H133.289V42.9647H127.705V50.5647H130.777V50.9327H124.217V50.5647H127.305V42.9647H121.721V45.5407ZM148.01 46.7727C148.01 47.6793 147.738 48.458 147.194 49.1087C146.65 49.7487 145.914 50.2393 144.986 50.5807C144.058 50.922 143.018 51.0927 141.866 51.0927C140.703 51.0927 139.658 50.922 138.73 50.5807C137.802 50.2393 137.066 49.7487 136.522 49.1087C135.978 48.458 135.706 47.6793 135.706 46.7727C135.706 45.8553 135.978 45.0713 136.522 44.4207C137.066 43.77 137.802 43.274 138.73 42.9327C139.658 42.5913 140.703 42.4207 141.866 42.4207C143.018 42.4207 144.058 42.5913 144.986 42.9327C145.914 43.274 146.65 43.77 147.194 44.4207C147.738 45.0713 148.01 45.8553 148.01 46.7727ZM136.106 46.7727C136.106 47.594 136.351 48.3033 136.842 48.9007C137.343 49.4873 138.026 49.9407 138.89 50.2607C139.765 50.57 140.757 50.7247 141.866 50.7247C142.965 50.7247 143.946 50.57 144.81 50.2607C145.674 49.9407 146.357 49.4873 146.858 48.9007C147.359 48.3033 147.61 47.594 147.61 46.7727C147.61 45.9407 147.359 45.2313 146.858 44.6447C146.357 44.0473 145.674 43.594 144.81 43.2847C143.946 42.9647 142.965 42.8047 141.866 42.8047C140.757 42.8047 139.765 42.9647 138.89 43.2847C138.026 43.594 137.343 44.0473 136.842 44.6447C136.351 45.2313 136.106 45.9407 136.106 46.7727ZM162.073 46.7727C162.073 47.6793 161.801 48.458 161.257 49.1087C160.713 49.7487 159.977 50.2393 159.049 50.5807C158.121 50.922 157.081 51.0927 155.929 51.0927C154.767 51.0927 153.721 50.922 152.793 50.5807C151.865 50.2393 151.129 49.7487 150.585 49.1087C150.041 48.458 149.769 47.6793 149.769 46.7727C149.769 45.8553 150.041 45.0713 150.585 44.4207C151.129 43.77 151.865 43.274 152.793 42.9327C153.721 42.5913 154.767 42.4207 155.929 42.4207C157.081 42.4207 158.121 42.5913 159.049 42.9327C159.977 43.274 160.713 43.77 161.257 44.4207C161.801 45.0713 162.073 45.8553 162.073 46.7727ZM150.169 46.7727C150.169 47.594 150.415 48.3033 150.905 48.9007C151.407 49.4873 152.089 49.9407 152.953 50.2607C153.828 50.57 154.82 50.7247 155.929 50.7247C157.028 50.7247 158.009 50.57 158.873 50.2607C159.737 49.9407 160.42 49.4873 160.921 48.9007C161.423 48.3033 161.673 47.594 161.673 46.7727C161.673 45.9407 161.423 45.2313 160.921 44.6447C160.42 44.0473 159.737 43.594 158.873 43.2847C158.009 42.9647 157.028 42.8047 155.929 42.8047C154.82 42.8047 153.828 42.9647 152.953 43.2847C152.089 43.594 151.407 44.0473 150.905 44.6447C150.415 45.2313 150.169 45.9407 150.169 46.7727Z" fill="#B98B33"/>
<path d="M76.6252 45.5407V45.7407H76.8252V45.5407H76.6252ZM76.2092 45.5407H76.0092V45.7407H76.2092V45.5407ZM76.2092 42.5967V42.3967H76.0092V42.5967H76.2092ZM88.5932 42.5967H88.7932V42.3967H88.5932V42.5967ZM88.5932 45.5407V45.7407H88.7932V45.5407H88.5932ZM88.1932 45.5407H87.9932V45.7407H88.1932V45.5407ZM88.1932 42.9647H88.3932V42.7647H88.1932V42.9647ZM82.6092 42.9647V42.7647H82.4092V42.9647H82.6092ZM82.6092 50.5647H82.4092V50.7647H82.6092V50.5647ZM85.6812 50.5647H85.8812V50.3647H85.6812V50.5647ZM85.6812 50.9327V51.1327H85.8812V50.9327H85.6812ZM79.1212 50.9327H78.9212V51.1327H79.1212V50.9327ZM79.1212 50.5647V50.3647H78.9212V50.5647H79.1212ZM82.2092 50.5647V50.7647H82.4092V50.5647H82.2092ZM82.2092 42.9647H82.4092V42.7647H82.2092V42.9647ZM76.6252 42.9647V42.7647H76.4252V42.9647H76.6252ZM76.6252 45.3407H76.2092V45.7407H76.6252V45.3407ZM76.4092 45.5407V42.5967H76.0092V45.5407H76.4092ZM76.2092 42.7967H88.5932V42.3967H76.2092V42.7967ZM88.3932 42.5967V45.5407H88.7932V42.5967H88.3932ZM88.5932 45.3407H88.1932V45.7407H88.5932V45.3407ZM88.3932 45.5407V42.9647H87.9932V45.5407H88.3932ZM88.1932 42.7647H82.6092V43.1647H88.1932V42.7647ZM82.4092 42.9647V50.5647H82.8092V42.9647H82.4092ZM82.6092 50.7647H85.6812V50.3647H82.6092V50.7647ZM85.4812 50.5647V50.9327H85.8812V50.5647H85.4812ZM85.6812 50.7327H79.1212V51.1327H85.6812V50.7327ZM79.3212 50.9327V50.5647H78.9212V50.9327H79.3212ZM79.1212 50.7647H82.2092V50.3647H79.1212V50.7647ZM82.4092 50.5647V42.9647H82.0092V50.5647H82.4092ZM82.2092 42.7647H76.6252V43.1647H82.2092V42.7647ZM76.4252 42.9647V45.5407H76.8252V42.9647H76.4252ZM94.7705 50.9327V51.1327H94.9705V50.9327H94.7705ZM89.3305 50.9327H89.1305V51.1327H89.3305V50.9327ZM89.3305 50.5647V50.3647H89.1305V50.5647H89.3305ZM91.9225 50.5647V50.7647H92.0272L92.0869 50.6785L91.9225 50.5647ZM97.1865 42.9647L97.3509 43.0785L97.5683 42.7647H97.1865V42.9647ZM94.6105 42.9647H94.4105V43.1647H94.6105V42.9647ZM94.6105 42.5967V42.3967H94.4105V42.5967H94.6105ZM100.642 42.5967H100.842V42.3967H100.642V42.5967ZM100.642 42.9647V43.1647H100.842V42.9647H100.642ZM98.0825 42.9647V42.7647H97.7007L97.9181 43.0785L98.0825 42.9647ZM103.346 50.5647L103.182 50.6785L103.242 50.7647H103.346V50.5647ZM105.938 50.5647H106.138V50.3647H105.938V50.5647ZM105.938 50.9327V51.1327H106.138V50.9327H105.938ZM100.498 50.9327H100.298V51.1327H100.498V50.9327ZM100.498 50.5647V50.3647H100.298V50.5647H100.498ZM102.882 50.5647V50.7647H103.263L103.047 50.4512L102.882 50.5647ZM100.93 47.7327L101.095 47.6192L101.036 47.5327H100.93V47.7327ZM94.3385 47.7327V47.5327H94.2329L94.1734 47.6198L94.3385 47.7327ZM92.4025 50.5647L92.2374 50.4518L92.0235 50.7647H92.4025V50.5647ZM94.7705 50.5647H94.9705V50.3647H94.7705V50.5647ZM94.5785 47.3807L94.4137 47.2673L94.198 47.5807H94.5785V47.3807ZM100.69 47.3807V47.5807H101.071L100.855 47.2673L100.69 47.3807ZM97.6505 42.9647L97.8152 42.8513L97.7556 42.7647H97.6505V42.9647ZM97.6185 42.9647V42.7647H97.5133L97.4537 42.8513L97.6185 42.9647ZM94.7705 50.7327H89.3305V51.1327H94.7705V50.7327ZM89.5305 50.9327V50.5647H89.1305V50.9327H89.5305ZM89.3305 50.7647H91.9225V50.3647H89.3305V50.7647ZM92.0869 50.6785L97.3509 43.0785L97.0221 42.8508L91.7581 50.4508L92.0869 50.6785ZM97.1865 42.7647H94.6105V43.1647H97.1865V42.7647ZM94.8105 42.9647V42.5967H94.4105V42.9647H94.8105ZM94.6105 42.7967H100.642V42.3967H94.6105V42.7967ZM100.442 42.5967V42.9647H100.842V42.5967H100.442ZM100.642 42.7647H98.0825V43.1647H100.642V42.7647ZM97.9181 43.0785L103.182 50.6785L103.511 50.4508L98.2469 42.8508L97.9181 43.0785ZM103.346 50.7647H105.938V50.3647H103.346V50.7647ZM105.738 50.5647V50.9327H106.138V50.5647H105.738ZM105.938 50.7327H100.498V51.1327H105.938V50.7327ZM100.698 50.9327V50.5647H100.298V50.9327H100.698ZM100.498 50.7647H102.882V50.3647H100.498V50.7647ZM103.047 50.4512L101.095 47.6192L100.766 47.8462L102.718 50.6782L103.047 50.4512ZM100.93 47.5327H94.3385V47.9327H100.93V47.5327ZM94.1734 47.6198L92.2374 50.4518L92.5676 50.6775L94.5036 47.8455L94.1734 47.6198ZM92.4025 50.7647H94.7705V50.3647H92.4025V50.7647ZM94.5705 50.5647V50.9327H94.9705V50.5647H94.5705ZM94.5785 47.5807H100.69V47.1807H94.5785V47.5807ZM100.855 47.2673L97.8152 42.8513L97.4857 43.0781L100.526 47.4941L100.855 47.2673ZM97.6505 42.7647H97.6185V43.1647H97.6505V42.7647ZM97.4537 42.8513L94.4137 47.2673L94.7432 47.4941L97.7832 43.0781L97.4537 42.8513ZM107.08 45.5407V45.7407H107.28V45.5407H107.08ZM106.664 45.5407H106.464V45.7407H106.664V45.5407ZM106.664 42.5967V42.3967H106.464V42.5967H106.664ZM119.048 42.5967H119.248V42.3967H119.048V42.5967ZM119.048 45.5407V45.7407H119.248V45.5407H119.048ZM118.648 45.5407H118.448V45.7407H118.648V45.5407ZM118.648 42.9647H118.848V42.7647H118.648V42.9647ZM113.064 42.9647V42.7647H112.864V42.9647H113.064ZM113.064 50.5647H112.864V50.7647H113.064V50.5647ZM116.136 50.5647H116.336V50.3647H116.136V50.5647ZM116.136 50.9327V51.1327H116.336V50.9327H116.136ZM109.576 50.9327H109.376V51.1327H109.576V50.9327ZM109.576 50.5647V50.3647H109.376V50.5647H109.576ZM112.664 50.5647V50.7647H112.864V50.5647H112.664ZM112.664 42.9647H112.864V42.7647H112.664V42.9647ZM107.08 42.9647V42.7647H106.88V42.9647H107.08ZM107.08 45.3407H106.664V45.7407H107.08V45.3407ZM106.864 45.5407V42.5967H106.464V45.5407H106.864ZM106.664 42.7967H119.048V42.3967H106.664V42.7967ZM118.848 42.5967V45.5407H119.248V42.5967H118.848ZM119.048 45.3407H118.648V45.7407H119.048V45.3407ZM118.848 45.5407V42.9647H118.448V45.5407H118.848ZM118.648 42.7647H113.064V43.1647H118.648V42.7647ZM112.864 42.9647V50.5647H113.264V42.9647H112.864ZM113.064 50.7647H116.136V50.3647H113.064V50.7647ZM115.936 50.5647V50.9327H116.336V50.5647H115.936ZM116.136 50.7327H109.576V51.1327H116.136V50.7327ZM109.776 50.9327V50.5647H109.376V50.9327H109.776ZM109.576 50.7647H112.664V50.3647H109.576V50.7647ZM112.864 50.5647V42.9647H112.464V50.5647H112.864ZM112.664 42.7647H107.08V43.1647H112.664V42.7647ZM106.88 42.9647V45.5407H107.28V42.9647H106.88ZM121.721 45.5407V45.7407H121.921V45.5407H121.721ZM121.305 45.5407H121.105V45.7407H121.305V45.5407ZM121.305 42.5967V42.3967H121.105V42.5967H121.305ZM133.689 42.5967H133.889V42.3967H133.689V42.5967ZM133.689 45.5407V45.7407H133.889V45.5407H133.689ZM133.289 45.5407H133.089V45.7407H133.289V45.5407ZM133.289 42.9647H133.489V42.7647H133.289V42.9647ZM127.705 42.9647V42.7647H127.505V42.9647H127.705ZM127.705 50.5647H127.505V50.7647H127.705V50.5647ZM130.777 50.5647H130.977V50.3647H130.777V50.5647ZM130.777 50.9327V51.1327H130.977V50.9327H130.777ZM124.217 50.9327H124.017V51.1327H124.217V50.9327ZM124.217 50.5647V50.3647H124.017V50.5647H124.217ZM127.305 50.5647V50.7647H127.505V50.5647H127.305ZM127.305 42.9647H127.505V42.7647H127.305V42.9647ZM121.721 42.9647V42.7647H121.521V42.9647H121.721ZM121.721 45.3407H121.305V45.7407H121.721V45.3407ZM121.505 45.5407V42.5967H121.105V45.5407H121.505ZM121.305 42.7967H133.689V42.3967H121.305V42.7967ZM133.489 42.5967V45.5407H133.889V42.5967H133.489ZM133.689 45.3407H133.289V45.7407H133.689V45.3407ZM133.489 45.5407V42.9647H133.089V45.5407H133.489ZM133.289 42.7647H127.705V43.1647H133.289V42.7647ZM127.505 42.9647V50.5647H127.905V42.9647H127.505ZM127.705 50.7647H130.777V50.3647H127.705V50.7647ZM130.577 50.5647V50.9327H130.977V50.5647H130.577ZM130.777 50.7327H124.217V51.1327H130.777V50.7327ZM124.417 50.9327V50.5647H124.017V50.9327H124.417ZM124.217 50.7647H127.305V50.3647H124.217V50.7647ZM127.505 50.5647V42.9647H127.105V50.5647H127.505ZM127.305 42.7647H121.721V43.1647H127.305V42.7647ZM121.521 42.9647V45.5407H121.921V42.9647H121.521ZM147.194 49.1087L147.346 49.2382L147.348 49.237L147.194 49.1087ZM144.986 50.5807L144.917 50.393L144.986 50.5807ZM138.73 50.5807L138.661 50.7684L138.73 50.5807ZM136.522 49.1087L136.369 49.237L136.37 49.2382L136.522 49.1087ZM138.73 42.9327L138.661 42.745L138.73 42.9327ZM136.842 48.9007L136.688 49.0276L136.69 49.0306L136.842 48.9007ZM138.89 50.2607L138.821 50.4482L138.823 50.4492L138.89 50.2607ZM144.81 50.2607L144.878 50.449L144.88 50.4482L144.81 50.2607ZM146.858 48.9007L147.01 49.0306L147.011 49.0292L146.858 48.9007ZM146.858 44.6447L146.705 44.7733L146.706 44.7746L146.858 44.6447ZM144.81 43.2847L144.741 43.4722L144.743 43.473L144.81 43.2847ZM138.89 43.2847L138.958 43.473L138.959 43.4725L138.89 43.2847ZM136.842 44.6447L136.689 44.5161L136.689 44.5164L136.842 44.6447ZM147.81 46.7727C147.81 47.6359 147.552 48.3683 147.041 48.9804L147.348 49.237C147.924 48.5477 148.21 47.7227 148.21 46.7727H147.81ZM147.042 48.9791C146.524 49.5886 145.818 50.0614 144.917 50.393L145.055 50.7684C146.01 50.4173 146.777 49.9088 147.346 49.2382L147.042 48.9791ZM144.917 50.393C144.014 50.7249 142.998 50.8927 141.866 50.8927V51.2927C143.038 51.2927 144.102 51.1191 145.055 50.7684L144.917 50.393ZM141.866 50.8927C140.723 50.8927 139.702 50.7249 138.799 50.393L138.661 50.7684C139.615 51.1191 140.684 51.2927 141.866 51.2927V50.8927ZM138.799 50.393C137.898 50.0614 137.193 49.5886 136.674 48.9791L136.37 49.2382C136.94 49.9088 137.706 50.4173 138.661 50.7684L138.799 50.393ZM136.676 48.9804C136.164 48.3683 135.906 47.6359 135.906 46.7727H135.506C135.506 47.7227 135.792 48.5477 136.369 49.237L136.676 48.9804ZM135.906 46.7727C135.906 45.8981 136.164 45.1606 136.676 44.549L136.369 44.2924C135.792 44.9821 135.506 45.8126 135.506 46.7727H135.906ZM136.676 44.549C137.194 43.9293 137.898 43.4517 138.799 43.1204L138.661 42.745C137.706 43.0964 136.939 43.6107 136.369 44.2924L136.676 44.549ZM138.799 43.1204C139.702 42.7885 140.723 42.6207 141.866 42.6207V42.2207C140.684 42.2207 139.615 42.3942 138.661 42.745L138.799 43.1204ZM141.866 42.6207C142.998 42.6207 144.014 42.7884 144.917 43.1204L145.055 42.745C144.102 42.3943 143.038 42.2207 141.866 42.2207V42.6207ZM144.917 43.1204C145.818 43.4517 146.523 43.9293 147.041 44.549L147.348 44.2924C146.778 43.6107 146.01 43.0964 145.055 42.745L144.917 43.1204ZM147.041 44.549C147.552 45.1606 147.81 45.8981 147.81 46.7727H148.21C148.21 45.8126 147.924 44.9821 147.348 44.2924L147.041 44.549ZM135.906 46.7727C135.906 47.6372 136.166 48.3922 136.688 49.0276L136.997 48.7737C136.537 48.2145 136.306 47.5508 136.306 46.7727H135.906ZM136.69 49.0306C137.217 49.6478 137.931 50.1187 138.821 50.4482L138.96 50.0731C138.121 49.7627 137.469 49.3269 136.994 48.7707L136.69 49.0306ZM138.823 50.4492C139.723 50.7675 140.738 50.9247 141.866 50.9247V50.5247C140.775 50.5247 139.806 50.3726 138.957 50.0721L138.823 50.4492ZM141.866 50.9247C142.983 50.9247 143.988 50.7674 144.878 50.449L144.743 50.0724C143.904 50.3726 142.946 50.5247 141.866 50.5247V50.9247ZM144.88 50.4482C145.769 50.1187 146.483 49.6478 147.01 49.0306L146.706 48.7707C146.231 49.3269 145.579 49.7627 144.741 50.0731L144.88 50.4482ZM147.011 49.0292C147.545 48.3939 147.81 47.6383 147.81 46.7727H147.41C147.41 47.5497 147.174 48.2128 146.705 48.7721L147.011 49.0292ZM147.81 46.7727C147.81 45.8971 147.545 45.1406 147.01 44.5147L146.706 44.7746C147.174 45.3221 147.41 45.9843 147.41 46.7727H147.81ZM147.011 44.5161C146.483 43.8871 145.769 43.4155 144.878 43.0964L144.743 43.473C145.579 43.7725 146.23 44.2075 146.705 44.7732L147.011 44.5161ZM144.88 43.0971C143.99 42.7675 142.984 42.6047 141.866 42.6047V43.0047C142.946 43.0047 143.903 43.1619 144.741 43.4722L144.88 43.0971ZM141.866 42.6047C140.738 42.6047 139.722 42.7674 138.821 43.0968L138.959 43.4725C139.808 43.1619 140.776 43.0047 141.866 43.0047V42.6047ZM138.823 43.0964C137.931 43.4155 137.217 43.8871 136.689 44.5161L136.995 44.7732C137.47 44.2075 138.121 43.7725 138.958 43.473L138.823 43.0964ZM136.689 44.5164C136.165 45.1423 135.906 45.8982 135.906 46.7727H136.306C136.306 45.9832 136.538 45.3204 136.996 44.773L136.689 44.5164ZM161.257 49.1087L161.41 49.2382L161.411 49.237L161.257 49.1087ZM159.049 50.5807L158.98 50.393L159.049 50.5807ZM152.793 50.5807L152.724 50.7684L152.793 50.5807ZM150.585 49.1087L150.432 49.237L150.433 49.2382L150.585 49.1087ZM152.793 42.9327L152.724 42.745L152.793 42.9327ZM150.905 48.9007L150.751 49.0276L150.753 49.0306L150.905 48.9007ZM152.953 50.2607L152.884 50.4482L152.887 50.4492L152.953 50.2607ZM158.873 50.2607L158.941 50.449L158.943 50.4482L158.873 50.2607ZM160.921 48.9007L161.073 49.0306L161.074 49.0292L160.921 48.9007ZM160.921 44.6447L160.768 44.7733L160.769 44.7746L160.921 44.6447ZM158.873 43.2847L158.804 43.4722L158.806 43.473L158.873 43.2847ZM152.953 43.2847L153.021 43.473L153.022 43.4725L152.953 43.2847ZM150.905 44.6447L150.752 44.5161L150.752 44.5164L150.905 44.6447ZM161.873 46.7727C161.873 47.6359 161.616 48.3683 161.104 48.9804L161.411 49.237C161.987 48.5477 162.273 47.7227 162.273 46.7727H161.873ZM161.105 48.9791C160.587 49.5886 159.882 50.0614 158.98 50.393L159.118 50.7684C160.073 50.4173 160.84 49.9088 161.41 49.2382L161.105 48.9791ZM158.98 50.393C158.078 50.7249 157.061 50.8927 155.929 50.8927V51.2927C157.101 51.2927 158.165 51.1191 159.118 50.7684L158.98 50.393ZM155.929 50.8927C154.786 50.8927 153.765 50.7249 152.862 50.393L152.724 50.7684C153.678 51.1191 154.747 51.2927 155.929 51.2927V50.8927ZM152.862 50.393C151.961 50.0614 151.256 49.5886 150.738 48.9791L150.433 49.2382C151.003 49.9088 151.77 50.4173 152.724 50.7684L152.862 50.393ZM150.739 48.9804C150.227 48.3683 149.969 47.6359 149.969 46.7727H149.569C149.569 47.7227 149.856 48.5477 150.432 49.237L150.739 48.9804ZM149.969 46.7727C149.969 45.8981 150.227 45.1606 150.739 44.549L150.432 44.2924C149.855 44.9821 149.569 45.8126 149.569 46.7727H149.969ZM150.739 44.549C151.257 43.9293 151.962 43.4517 152.862 43.1204L152.724 42.745C151.769 43.0964 151.002 43.6107 150.432 44.2924L150.739 44.549ZM152.862 43.1204C153.765 42.7885 154.786 42.6207 155.929 42.6207V42.2207C154.747 42.2207 153.678 42.3942 152.724 42.745L152.862 43.1204ZM155.929 42.6207C157.061 42.6207 158.078 42.7884 158.98 43.1204L159.118 42.745C158.165 42.3943 157.101 42.2207 155.929 42.2207V42.6207ZM158.98 43.1204C159.881 43.4517 160.586 43.9293 161.104 44.549L161.411 44.2924C160.841 43.6107 160.074 43.0964 159.118 42.745L158.98 43.1204ZM161.104 44.549C161.615 45.1606 161.873 45.8981 161.873 46.7727H162.273C162.273 45.8126 161.987 44.9821 161.411 44.2924L161.104 44.549ZM149.969 46.7727C149.969 47.6372 150.229 48.3922 150.751 49.0276L151.06 48.7737C150.6 48.2145 150.369 47.5508 150.369 46.7727H149.969ZM150.753 49.0306C151.281 49.6478 151.994 50.1187 152.884 50.4482L153.023 50.0731C152.184 49.7627 151.533 49.3269 151.057 48.7707L150.753 49.0306ZM152.887 50.4492C153.786 50.7675 154.801 50.9247 155.929 50.9247V50.5247C154.838 50.5247 153.869 50.3726 153.02 50.0721L152.887 50.4492ZM155.929 50.9247C157.046 50.9247 158.051 50.7674 158.941 50.449L158.806 50.0724C157.967 50.3726 157.009 50.5247 155.929 50.5247V50.9247ZM158.943 50.4482C159.832 50.1187 160.546 49.6478 161.073 49.0306L160.769 48.7707C160.294 49.3269 159.642 49.7627 158.804 50.0731L158.943 50.4482ZM161.074 49.0292C161.608 48.3939 161.873 47.6383 161.873 46.7727H161.473C161.473 47.5497 161.237 48.2128 160.768 48.7721L161.074 49.0292ZM161.873 46.7727C161.873 45.8971 161.608 45.1406 161.073 44.5147L160.769 44.7746C161.237 45.3221 161.473 45.9843 161.473 46.7727H161.873ZM161.074 44.5161C160.547 43.8871 159.832 43.4155 158.941 43.0964L158.806 43.473C159.642 43.7725 160.293 44.2075 160.768 44.7732L161.074 44.5161ZM158.943 43.0971C158.053 42.7675 157.047 42.6047 155.929 42.6047V43.0047C157.009 43.0047 157.966 43.1619 158.804 43.4722L158.943 43.0971ZM155.929 42.6047C154.801 42.6047 153.785 42.7674 152.885 43.0968L153.022 43.4725C153.871 43.1619 154.839 43.0047 155.929 43.0047V42.6047ZM152.886 43.0964C151.994 43.4155 151.28 43.8871 150.752 44.5161L151.058 44.7732C151.533 44.2075 152.184 43.7725 153.021 43.473L152.886 43.0964ZM150.752 44.5164C150.228 45.1423 149.969 45.8982 149.969 46.7727H150.369C150.369 45.9832 150.601 45.3204 151.059 44.773L150.752 44.5164Z" fill="#B98B33"/>
<line x1="24.033" y1="45.5417" x2="69.4286" y2="45.5417" stroke="#B98B33"/>
<line x1="168.231" y1="45.5417" x2="213.626" y2="45.5417" stroke="#B98B33"/>
<line x1="10.6813" y1="21.1667" x2="226.978" y2="21.1667" stroke="#B98B33"/>
</svg>
