<svg width="58" height="58" viewBox="0 0 58 58" fill="none" xmlns="http://www.w3.org/2000/svg">
<path d="M43.268 0C43.6161 0 44.312 -6.75209e-09 44.834 0.058C46.11 0.058 47.792 0.174 48.546 0.348C49.706 0.58 50.808 0.928 51.678 1.392C52.78 1.914 53.708 2.61 54.578 3.48C55.39 4.292 56.086 5.22 56.608 6.322C57.072 7.192 57.42 8.294 57.652 9.454C57.826 10.208 57.942 11.89 58 13.166V43.2681C58 43.6161 58 44.3121 57.942 44.8341C57.942 46.1101 57.826 47.7921 57.652 48.5461C57.42 49.7061 57.072 50.8081 56.608 51.6781C56.086 52.7801 55.39 53.7081 54.52 54.5781C53.708 55.3901 52.78 56.0861 51.678 56.6081C50.808 57.0721 49.706 57.4201 48.546 57.6521C47.792 57.8261 46.11 57.9421 44.834 58.0001H14.732C14.384 58.0001 13.688 58.0001 13.166 57.9421C11.89 57.9421 10.208 57.8261 9.454 57.6521C8.294 57.4201 7.192 57.0721 6.322 56.6081C5.22 56.0861 4.292 55.3901 3.422 54.5201C2.61 53.7081 1.914 52.7801 1.392 51.6781C0.928 50.8081 0.58 49.7061 0.348 48.5461C0.174 47.7921 0.058 46.1101 0 44.8341V14.732C0 14.384 0 13.688 0.058 13.166C0.058 11.89 0.174 10.208 0.348 9.454C0.58 8.294 0.928 7.192 1.392 6.322C1.914 5.22 2.61 4.292 3.48 3.422C4.292 2.61 5.22 1.914 6.322 1.392C7.192 0.928 8.294 0.58 9.454 0.348C10.208 0.174 11.8899 0.058 13.166 0H43.268ZM44.2531 13.8841C40.3498 9.97747 35.1588 7.82502 29.6281 7.82275C18.2326 7.82275 8.95794 17.0938 8.95341 28.4894C8.95194 32.1321 9.90384 35.688 11.7131 38.8221L8.77998 49.5322L19.7399 46.6583C22.7597 48.3048 26.1596 49.1724 29.6199 49.1739H29.6284C41.0229 49.1739 50.2982 39.9016 50.3029 28.506C50.305 22.9834 48.1567 17.7907 44.2531 13.8841ZM29.6283 45.6832H29.6213C26.5378 45.6819 23.5136 44.8539 20.8752 43.2887L20.2478 42.9164L13.744 44.6219L15.48 38.2828L15.0713 37.633C13.3512 34.8979 12.4428 31.7366 12.4441 28.4908C12.4478 19.0192 20.1566 11.3134 29.6352 11.3134C34.225 11.3152 38.5394 13.1045 41.7838 16.3515C45.0282 19.5984 46.8139 23.9146 46.8122 28.5046C46.8083 37.9769 39.0997 45.6832 29.6283 45.6832ZM39.0541 32.8175C38.5375 32.559 35.9977 31.3096 35.5241 31.1373C35.0506 30.965 34.7063 30.8788 34.3619 31.3958C34.0175 31.9128 33.0275 33.076 32.7262 33.4207C32.4248 33.7653 32.1235 33.8084 31.6069 33.5498C31.0903 33.2914 29.4258 32.7461 27.4527 30.9866C25.917 29.6174 24.8802 27.9261 24.5789 27.4091C24.2775 26.8921 24.5468 26.6126 24.8054 26.3551C25.0378 26.1239 25.322 25.752 25.5803 25.4504C25.8385 25.1489 25.9246 24.9334 26.0968 24.5888C26.269 24.2442 26.1829 23.9426 26.0538 23.6841C25.9246 23.4255 24.8915 20.8837 24.461 19.8497C24.0418 18.8427 23.6159 18.979 23.2988 18.9632C22.9978 18.9482 22.6531 18.945 22.3087 18.945C21.9642 18.945 21.4047 19.0743 20.9311 19.5912C20.4576 20.1082 19.1231 21.3577 19.1231 23.8995C19.1231 26.4413 20.9741 28.897 21.2324 29.2417C21.4908 29.5865 24.8752 34.8026 30.0573 37.0396C31.2898 37.5717 32.252 37.8893 33.0022 38.1274C34.2397 38.5204 35.366 38.465 36.256 38.332C37.2485 38.1837 39.3123 37.0826 39.7429 35.8764C40.1733 34.6701 40.1733 33.636 40.0441 33.4207C39.9151 33.2052 39.5707 33.076 39.0541 32.8175Z" fill="#204357"/>
</svg>
